%TF.GenerationSoftware,KiCad,Pcbnew,(5.1.9)-1*%
%TF.CreationDate,2021-03-22T20:32:08-05:00*%
%TF.ProjectId,Buffer board,42756666-6572-4206-926f-6172642e6b69,rev?*%
%TF.SameCoordinates,Original*%
%TF.FileFunction,Soldermask,Bot*%
%TF.FilePolarity,Negative*%
%FSLAX46Y46*%
G04 Gerber Fmt 4.6, Leading zero omitted, Abs format (unit mm)*
G04 Created by KiCad (PCBNEW (5.1.9)-1) date 2021-03-22 20:32:08*
%MOMM*%
%LPD*%
G01*
G04 APERTURE LIST*
%ADD10O,1.700000X1.700000*%
%ADD11R,1.700000X1.700000*%
G04 APERTURE END LIST*
D10*
%TO.C,J7*%
X131267200Y-149745700D03*
X133807200Y-149745700D03*
X131267200Y-147205700D03*
X133807200Y-147205700D03*
X131267200Y-144665700D03*
X133807200Y-144665700D03*
X131267200Y-142125700D03*
D11*
X133807200Y-142125700D03*
%TD*%
D10*
%TO.C,J6*%
X131267200Y-134823200D03*
X133807200Y-134823200D03*
X131267200Y-132283200D03*
X133807200Y-132283200D03*
X131267200Y-129743200D03*
X133807200Y-129743200D03*
X131267200Y-127203200D03*
D11*
X133807200Y-127203200D03*
%TD*%
D10*
%TO.C,J5*%
X131140200Y-119557800D03*
X133680200Y-119557800D03*
X131140200Y-117017800D03*
X133680200Y-117017800D03*
X131140200Y-114477800D03*
X133680200Y-114477800D03*
X131140200Y-111937800D03*
D11*
X133680200Y-111937800D03*
%TD*%
D10*
%TO.C,J4*%
X131419600Y-103136700D03*
X133959600Y-103136700D03*
X131419600Y-100596700D03*
X133959600Y-100596700D03*
X131419600Y-98056700D03*
X133959600Y-98056700D03*
X131419600Y-95516700D03*
D11*
X133959600Y-95516700D03*
%TD*%
D10*
%TO.C,J3*%
X131521200Y-86639400D03*
X134061200Y-86639400D03*
X131521200Y-84099400D03*
X134061200Y-84099400D03*
X131521200Y-81559400D03*
X134061200Y-81559400D03*
X131521200Y-79019400D03*
D11*
X134061200Y-79019400D03*
%TD*%
D10*
%TO.C,J2*%
X92710000Y-149860000D03*
X92710000Y-147320000D03*
D11*
X92710000Y-144780000D03*
%TD*%
D10*
%TO.C,J1*%
X88900000Y-138430000D03*
X86360000Y-138430000D03*
X88900000Y-135890000D03*
X86360000Y-135890000D03*
X88900000Y-133350000D03*
X86360000Y-133350000D03*
X88900000Y-130810000D03*
X86360000Y-130810000D03*
X88900000Y-128270000D03*
X86360000Y-128270000D03*
X88900000Y-125730000D03*
X86360000Y-125730000D03*
X88900000Y-123190000D03*
X86360000Y-123190000D03*
X88900000Y-120650000D03*
X86360000Y-120650000D03*
X88900000Y-118110000D03*
X86360000Y-118110000D03*
X88900000Y-115570000D03*
X86360000Y-115570000D03*
X88900000Y-113030000D03*
X86360000Y-113030000D03*
X88900000Y-110490000D03*
X86360000Y-110490000D03*
X88900000Y-107950000D03*
X86360000Y-107950000D03*
X88900000Y-105410000D03*
X86360000Y-105410000D03*
X88900000Y-102870000D03*
X86360000Y-102870000D03*
X88900000Y-100330000D03*
X86360000Y-100330000D03*
X88900000Y-97790000D03*
X86360000Y-97790000D03*
X88900000Y-95250000D03*
X86360000Y-95250000D03*
X88900000Y-92710000D03*
X86360000Y-92710000D03*
X88900000Y-90170000D03*
D11*
X86360000Y-90170000D03*
%TD*%
M02*
