M48
; DRILL file {KiCad (5.1.9)-1} date 03/22/21 20:32:01
; FORMAT={-:-/ absolute / inch / decimal}
; #@! TF.CreationDate,2021-03-22T20:32:01-05:00
; #@! TF.GenerationSoftware,Kicad,Pcbnew,(5.1.9)-1
; #@! TF.FileFunction,Plated,1,2,PTH
FMAT,2
INCH
T1C0.0157
T2C0.0394
%
G90
G05
T1
X3.7923Y-4.9348
X3.7933Y-5.6232
X4.1028Y-5.4398
X4.21Y-5.3375
X4.2717Y-4.8228
X4.2782Y-5.2272
X4.8327Y-5.2657
X4.8376Y-5.2215
X4.8376Y-5.3691
X4.8425Y-3.7303
X4.8425Y-3.9173
X4.8425Y-4.5768
X4.8425Y-4.7539
X4.8425Y-5.1673
X4.8425Y-5.315
X4.8425Y-5.6791
X4.8425Y-5.7874
X4.8474Y-4.4242
X4.8474Y-4.4734
X4.8474Y-5.0049
X4.8524Y-4.0551
X4.8524Y-4.1142
X4.8524Y-4.5177
X4.8524Y-5.0689
X4.8524Y-5.1181
X4.8622Y-3.8091
X4.8622Y-3.8583
X4.8622Y-3.9567
X4.8622Y-4.6161
X4.8622Y-4.6654
X4.8635Y-3.4595
X4.868Y-3.364
X4.8695Y-3.2635
X4.872Y-3.9961
X4.872Y-4.7146
X4.8727Y-3.3127
X4.873Y-3.409
X4.8735Y-3.216
X4.8785Y-3.121
X4.8855Y-3.1605
X4.9016Y-5.315
X5.0492Y-5.187
X5.0787Y-5.2854
T2
X3.4Y-3.55
X3.4Y-3.65
X3.4Y-3.75
X3.4Y-3.85
X3.4Y-3.95
X3.4Y-4.05
X3.4Y-4.15
X3.4Y-4.25
X3.4Y-4.35
X3.4Y-4.45
X3.4Y-4.55
X3.4Y-4.65
X3.4Y-4.75
X3.4Y-4.85
X3.4Y-4.95
X3.4Y-5.05
X3.4Y-5.15
X3.4Y-5.25
X3.4Y-5.35
X3.4Y-5.45
X3.5Y-3.55
X3.5Y-3.65
X3.5Y-3.75
X3.5Y-3.85
X3.5Y-3.95
X3.5Y-4.05
X3.5Y-4.15
X3.5Y-4.25
X3.5Y-4.35
X3.5Y-4.45
X3.5Y-4.55
X3.5Y-4.65
X3.5Y-4.75
X3.5Y-4.85
X3.5Y-4.95
X3.5Y-5.05
X3.5Y-5.15
X3.5Y-5.25
X3.5Y-5.35
X3.5Y-5.45
X3.65Y-5.7
X3.65Y-5.8
X3.65Y-5.9
X5.163Y-4.407
X5.163Y-4.507
X5.163Y-4.607
X5.163Y-4.707
X5.168Y-5.008
X5.168Y-5.108
X5.168Y-5.208
X5.168Y-5.308
X5.168Y-5.5955
X5.168Y-5.6955
X5.168Y-5.7955
X5.168Y-5.8955
X5.174Y-3.7605
X5.174Y-3.8605
X5.174Y-3.9605
X5.174Y-4.0605
X5.178Y-3.111
X5.178Y-3.211
X5.178Y-3.311
X5.178Y-3.411
X5.263Y-4.407
X5.263Y-4.507
X5.263Y-4.607
X5.263Y-4.707
X5.268Y-5.008
X5.268Y-5.108
X5.268Y-5.208
X5.268Y-5.308
X5.268Y-5.5955
X5.268Y-5.6955
X5.268Y-5.7955
X5.268Y-5.8955
X5.274Y-3.7605
X5.274Y-3.8605
X5.274Y-3.9605
X5.274Y-4.0605
X5.278Y-3.111
X5.278Y-3.211
X5.278Y-3.311
X5.278Y-3.411
T0
M30
