%TF.GenerationSoftware,KiCad,Pcbnew,(5.1.9)-1*%
%TF.CreationDate,2021-03-22T20:32:08-05:00*%
%TF.ProjectId,Buffer board,42756666-6572-4206-926f-6172642e6b69,rev?*%
%TF.SameCoordinates,Original*%
%TF.FileFunction,Soldermask,Top*%
%TF.FilePolarity,Negative*%
%FSLAX46Y46*%
G04 Gerber Fmt 4.6, Leading zero omitted, Abs format (unit mm)*
G04 Created by KiCad (PCBNEW (5.1.9)-1) date 2021-03-22 20:32:08*
%MOMM*%
%LPD*%
G01*
G04 APERTURE LIST*
%ADD10O,1.700000X1.700000*%
%ADD11R,1.700000X1.700000*%
G04 APERTURE END LIST*
D10*
%TO.C,J7*%
X131267200Y-149745700D03*
X133807200Y-149745700D03*
X131267200Y-147205700D03*
X133807200Y-147205700D03*
X131267200Y-144665700D03*
X133807200Y-144665700D03*
X131267200Y-142125700D03*
D11*
X133807200Y-142125700D03*
%TD*%
D10*
%TO.C,J6*%
X131267200Y-134823200D03*
X133807200Y-134823200D03*
X131267200Y-132283200D03*
X133807200Y-132283200D03*
X131267200Y-129743200D03*
X133807200Y-129743200D03*
X131267200Y-127203200D03*
D11*
X133807200Y-127203200D03*
%TD*%
D10*
%TO.C,J5*%
X131140200Y-119557800D03*
X133680200Y-119557800D03*
X131140200Y-117017800D03*
X133680200Y-117017800D03*
X131140200Y-114477800D03*
X133680200Y-114477800D03*
X131140200Y-111937800D03*
D11*
X133680200Y-111937800D03*
%TD*%
D10*
%TO.C,J4*%
X131419600Y-103136700D03*
X133959600Y-103136700D03*
X131419600Y-100596700D03*
X133959600Y-100596700D03*
X131419600Y-98056700D03*
X133959600Y-98056700D03*
X131419600Y-95516700D03*
D11*
X133959600Y-95516700D03*
%TD*%
D10*
%TO.C,J3*%
X131521200Y-86639400D03*
X134061200Y-86639400D03*
X131521200Y-84099400D03*
X134061200Y-84099400D03*
X131521200Y-81559400D03*
X134061200Y-81559400D03*
X131521200Y-79019400D03*
D11*
X134061200Y-79019400D03*
%TD*%
D10*
%TO.C,J2*%
X92710000Y-149860000D03*
X92710000Y-147320000D03*
D11*
X92710000Y-144780000D03*
%TD*%
D10*
%TO.C,J1*%
X88900000Y-138430000D03*
X86360000Y-138430000D03*
X88900000Y-135890000D03*
X86360000Y-135890000D03*
X88900000Y-133350000D03*
X86360000Y-133350000D03*
X88900000Y-130810000D03*
X86360000Y-130810000D03*
X88900000Y-128270000D03*
X86360000Y-128270000D03*
X88900000Y-125730000D03*
X86360000Y-125730000D03*
X88900000Y-123190000D03*
X86360000Y-123190000D03*
X88900000Y-120650000D03*
X86360000Y-120650000D03*
X88900000Y-118110000D03*
X86360000Y-118110000D03*
X88900000Y-115570000D03*
X86360000Y-115570000D03*
X88900000Y-113030000D03*
X86360000Y-113030000D03*
X88900000Y-110490000D03*
X86360000Y-110490000D03*
X88900000Y-107950000D03*
X86360000Y-107950000D03*
X88900000Y-105410000D03*
X86360000Y-105410000D03*
X88900000Y-102870000D03*
X86360000Y-102870000D03*
X88900000Y-100330000D03*
X86360000Y-100330000D03*
X88900000Y-97790000D03*
X86360000Y-97790000D03*
X88900000Y-95250000D03*
X86360000Y-95250000D03*
X88900000Y-92710000D03*
X86360000Y-92710000D03*
X88900000Y-90170000D03*
D11*
X86360000Y-90170000D03*
%TD*%
%TO.C,IC5*%
G36*
G01*
X119296600Y-140637400D02*
X119296600Y-140337400D01*
G75*
G02*
X119446600Y-140187400I150000J0D01*
G01*
X121196600Y-140187400D01*
G75*
G02*
X121346600Y-140337400I0J-150000D01*
G01*
X121346600Y-140637400D01*
G75*
G02*
X121196600Y-140787400I-150000J0D01*
G01*
X119446600Y-140787400D01*
G75*
G02*
X119296600Y-140637400I0J150000D01*
G01*
G37*
G36*
G01*
X119296600Y-141907400D02*
X119296600Y-141607400D01*
G75*
G02*
X119446600Y-141457400I150000J0D01*
G01*
X121196600Y-141457400D01*
G75*
G02*
X121346600Y-141607400I0J-150000D01*
G01*
X121346600Y-141907400D01*
G75*
G02*
X121196600Y-142057400I-150000J0D01*
G01*
X119446600Y-142057400D01*
G75*
G02*
X119296600Y-141907400I0J150000D01*
G01*
G37*
G36*
G01*
X119296600Y-143177400D02*
X119296600Y-142877400D01*
G75*
G02*
X119446600Y-142727400I150000J0D01*
G01*
X121196600Y-142727400D01*
G75*
G02*
X121346600Y-142877400I0J-150000D01*
G01*
X121346600Y-143177400D01*
G75*
G02*
X121196600Y-143327400I-150000J0D01*
G01*
X119446600Y-143327400D01*
G75*
G02*
X119296600Y-143177400I0J150000D01*
G01*
G37*
G36*
G01*
X119296600Y-144447400D02*
X119296600Y-144147400D01*
G75*
G02*
X119446600Y-143997400I150000J0D01*
G01*
X121196600Y-143997400D01*
G75*
G02*
X121346600Y-144147400I0J-150000D01*
G01*
X121346600Y-144447400D01*
G75*
G02*
X121196600Y-144597400I-150000J0D01*
G01*
X119446600Y-144597400D01*
G75*
G02*
X119296600Y-144447400I0J150000D01*
G01*
G37*
G36*
G01*
X119296600Y-145717400D02*
X119296600Y-145417400D01*
G75*
G02*
X119446600Y-145267400I150000J0D01*
G01*
X121196600Y-145267400D01*
G75*
G02*
X121346600Y-145417400I0J-150000D01*
G01*
X121346600Y-145717400D01*
G75*
G02*
X121196600Y-145867400I-150000J0D01*
G01*
X119446600Y-145867400D01*
G75*
G02*
X119296600Y-145717400I0J150000D01*
G01*
G37*
G36*
G01*
X119296600Y-146987400D02*
X119296600Y-146687400D01*
G75*
G02*
X119446600Y-146537400I150000J0D01*
G01*
X121196600Y-146537400D01*
G75*
G02*
X121346600Y-146687400I0J-150000D01*
G01*
X121346600Y-146987400D01*
G75*
G02*
X121196600Y-147137400I-150000J0D01*
G01*
X119446600Y-147137400D01*
G75*
G02*
X119296600Y-146987400I0J150000D01*
G01*
G37*
G36*
G01*
X119296600Y-148257400D02*
X119296600Y-147957400D01*
G75*
G02*
X119446600Y-147807400I150000J0D01*
G01*
X121196600Y-147807400D01*
G75*
G02*
X121346600Y-147957400I0J-150000D01*
G01*
X121346600Y-148257400D01*
G75*
G02*
X121196600Y-148407400I-150000J0D01*
G01*
X119446600Y-148407400D01*
G75*
G02*
X119296600Y-148257400I0J150000D01*
G01*
G37*
G36*
G01*
X119296600Y-149527400D02*
X119296600Y-149227400D01*
G75*
G02*
X119446600Y-149077400I150000J0D01*
G01*
X121196600Y-149077400D01*
G75*
G02*
X121346600Y-149227400I0J-150000D01*
G01*
X121346600Y-149527400D01*
G75*
G02*
X121196600Y-149677400I-150000J0D01*
G01*
X119446600Y-149677400D01*
G75*
G02*
X119296600Y-149527400I0J150000D01*
G01*
G37*
G36*
G01*
X119296600Y-150797400D02*
X119296600Y-150497400D01*
G75*
G02*
X119446600Y-150347400I150000J0D01*
G01*
X121196600Y-150347400D01*
G75*
G02*
X121346600Y-150497400I0J-150000D01*
G01*
X121346600Y-150797400D01*
G75*
G02*
X121196600Y-150947400I-150000J0D01*
G01*
X119446600Y-150947400D01*
G75*
G02*
X119296600Y-150797400I0J150000D01*
G01*
G37*
G36*
G01*
X119296600Y-152067400D02*
X119296600Y-151767400D01*
G75*
G02*
X119446600Y-151617400I150000J0D01*
G01*
X121196600Y-151617400D01*
G75*
G02*
X121346600Y-151767400I0J-150000D01*
G01*
X121346600Y-152067400D01*
G75*
G02*
X121196600Y-152217400I-150000J0D01*
G01*
X119446600Y-152217400D01*
G75*
G02*
X119296600Y-152067400I0J150000D01*
G01*
G37*
G36*
G01*
X109996600Y-152067400D02*
X109996600Y-151767400D01*
G75*
G02*
X110146600Y-151617400I150000J0D01*
G01*
X111896600Y-151617400D01*
G75*
G02*
X112046600Y-151767400I0J-150000D01*
G01*
X112046600Y-152067400D01*
G75*
G02*
X111896600Y-152217400I-150000J0D01*
G01*
X110146600Y-152217400D01*
G75*
G02*
X109996600Y-152067400I0J150000D01*
G01*
G37*
G36*
G01*
X109996600Y-150797400D02*
X109996600Y-150497400D01*
G75*
G02*
X110146600Y-150347400I150000J0D01*
G01*
X111896600Y-150347400D01*
G75*
G02*
X112046600Y-150497400I0J-150000D01*
G01*
X112046600Y-150797400D01*
G75*
G02*
X111896600Y-150947400I-150000J0D01*
G01*
X110146600Y-150947400D01*
G75*
G02*
X109996600Y-150797400I0J150000D01*
G01*
G37*
G36*
G01*
X109996600Y-149527400D02*
X109996600Y-149227400D01*
G75*
G02*
X110146600Y-149077400I150000J0D01*
G01*
X111896600Y-149077400D01*
G75*
G02*
X112046600Y-149227400I0J-150000D01*
G01*
X112046600Y-149527400D01*
G75*
G02*
X111896600Y-149677400I-150000J0D01*
G01*
X110146600Y-149677400D01*
G75*
G02*
X109996600Y-149527400I0J150000D01*
G01*
G37*
G36*
G01*
X109996600Y-148257400D02*
X109996600Y-147957400D01*
G75*
G02*
X110146600Y-147807400I150000J0D01*
G01*
X111896600Y-147807400D01*
G75*
G02*
X112046600Y-147957400I0J-150000D01*
G01*
X112046600Y-148257400D01*
G75*
G02*
X111896600Y-148407400I-150000J0D01*
G01*
X110146600Y-148407400D01*
G75*
G02*
X109996600Y-148257400I0J150000D01*
G01*
G37*
G36*
G01*
X109996600Y-146987400D02*
X109996600Y-146687400D01*
G75*
G02*
X110146600Y-146537400I150000J0D01*
G01*
X111896600Y-146537400D01*
G75*
G02*
X112046600Y-146687400I0J-150000D01*
G01*
X112046600Y-146987400D01*
G75*
G02*
X111896600Y-147137400I-150000J0D01*
G01*
X110146600Y-147137400D01*
G75*
G02*
X109996600Y-146987400I0J150000D01*
G01*
G37*
G36*
G01*
X109996600Y-145717400D02*
X109996600Y-145417400D01*
G75*
G02*
X110146600Y-145267400I150000J0D01*
G01*
X111896600Y-145267400D01*
G75*
G02*
X112046600Y-145417400I0J-150000D01*
G01*
X112046600Y-145717400D01*
G75*
G02*
X111896600Y-145867400I-150000J0D01*
G01*
X110146600Y-145867400D01*
G75*
G02*
X109996600Y-145717400I0J150000D01*
G01*
G37*
G36*
G01*
X109996600Y-144447400D02*
X109996600Y-144147400D01*
G75*
G02*
X110146600Y-143997400I150000J0D01*
G01*
X111896600Y-143997400D01*
G75*
G02*
X112046600Y-144147400I0J-150000D01*
G01*
X112046600Y-144447400D01*
G75*
G02*
X111896600Y-144597400I-150000J0D01*
G01*
X110146600Y-144597400D01*
G75*
G02*
X109996600Y-144447400I0J150000D01*
G01*
G37*
G36*
G01*
X109996600Y-143177400D02*
X109996600Y-142877400D01*
G75*
G02*
X110146600Y-142727400I150000J0D01*
G01*
X111896600Y-142727400D01*
G75*
G02*
X112046600Y-142877400I0J-150000D01*
G01*
X112046600Y-143177400D01*
G75*
G02*
X111896600Y-143327400I-150000J0D01*
G01*
X110146600Y-143327400D01*
G75*
G02*
X109996600Y-143177400I0J150000D01*
G01*
G37*
G36*
G01*
X109996600Y-141907400D02*
X109996600Y-141607400D01*
G75*
G02*
X110146600Y-141457400I150000J0D01*
G01*
X111896600Y-141457400D01*
G75*
G02*
X112046600Y-141607400I0J-150000D01*
G01*
X112046600Y-141907400D01*
G75*
G02*
X111896600Y-142057400I-150000J0D01*
G01*
X110146600Y-142057400D01*
G75*
G02*
X109996600Y-141907400I0J150000D01*
G01*
G37*
G36*
G01*
X109996600Y-140637400D02*
X109996600Y-140337400D01*
G75*
G02*
X110146600Y-140187400I150000J0D01*
G01*
X111896600Y-140187400D01*
G75*
G02*
X112046600Y-140337400I0J-150000D01*
G01*
X112046600Y-140637400D01*
G75*
G02*
X111896600Y-140787400I-150000J0D01*
G01*
X110146600Y-140787400D01*
G75*
G02*
X109996600Y-140637400I0J150000D01*
G01*
G37*
%TD*%
%TO.C,IC4*%
G36*
G01*
X119195000Y-125245000D02*
X119195000Y-124945000D01*
G75*
G02*
X119345000Y-124795000I150000J0D01*
G01*
X121095000Y-124795000D01*
G75*
G02*
X121245000Y-124945000I0J-150000D01*
G01*
X121245000Y-125245000D01*
G75*
G02*
X121095000Y-125395000I-150000J0D01*
G01*
X119345000Y-125395000D01*
G75*
G02*
X119195000Y-125245000I0J150000D01*
G01*
G37*
G36*
G01*
X119195000Y-126515000D02*
X119195000Y-126215000D01*
G75*
G02*
X119345000Y-126065000I150000J0D01*
G01*
X121095000Y-126065000D01*
G75*
G02*
X121245000Y-126215000I0J-150000D01*
G01*
X121245000Y-126515000D01*
G75*
G02*
X121095000Y-126665000I-150000J0D01*
G01*
X119345000Y-126665000D01*
G75*
G02*
X119195000Y-126515000I0J150000D01*
G01*
G37*
G36*
G01*
X119195000Y-127785000D02*
X119195000Y-127485000D01*
G75*
G02*
X119345000Y-127335000I150000J0D01*
G01*
X121095000Y-127335000D01*
G75*
G02*
X121245000Y-127485000I0J-150000D01*
G01*
X121245000Y-127785000D01*
G75*
G02*
X121095000Y-127935000I-150000J0D01*
G01*
X119345000Y-127935000D01*
G75*
G02*
X119195000Y-127785000I0J150000D01*
G01*
G37*
G36*
G01*
X119195000Y-129055000D02*
X119195000Y-128755000D01*
G75*
G02*
X119345000Y-128605000I150000J0D01*
G01*
X121095000Y-128605000D01*
G75*
G02*
X121245000Y-128755000I0J-150000D01*
G01*
X121245000Y-129055000D01*
G75*
G02*
X121095000Y-129205000I-150000J0D01*
G01*
X119345000Y-129205000D01*
G75*
G02*
X119195000Y-129055000I0J150000D01*
G01*
G37*
G36*
G01*
X119195000Y-130325000D02*
X119195000Y-130025000D01*
G75*
G02*
X119345000Y-129875000I150000J0D01*
G01*
X121095000Y-129875000D01*
G75*
G02*
X121245000Y-130025000I0J-150000D01*
G01*
X121245000Y-130325000D01*
G75*
G02*
X121095000Y-130475000I-150000J0D01*
G01*
X119345000Y-130475000D01*
G75*
G02*
X119195000Y-130325000I0J150000D01*
G01*
G37*
G36*
G01*
X119195000Y-131595000D02*
X119195000Y-131295000D01*
G75*
G02*
X119345000Y-131145000I150000J0D01*
G01*
X121095000Y-131145000D01*
G75*
G02*
X121245000Y-131295000I0J-150000D01*
G01*
X121245000Y-131595000D01*
G75*
G02*
X121095000Y-131745000I-150000J0D01*
G01*
X119345000Y-131745000D01*
G75*
G02*
X119195000Y-131595000I0J150000D01*
G01*
G37*
G36*
G01*
X119195000Y-132865000D02*
X119195000Y-132565000D01*
G75*
G02*
X119345000Y-132415000I150000J0D01*
G01*
X121095000Y-132415000D01*
G75*
G02*
X121245000Y-132565000I0J-150000D01*
G01*
X121245000Y-132865000D01*
G75*
G02*
X121095000Y-133015000I-150000J0D01*
G01*
X119345000Y-133015000D01*
G75*
G02*
X119195000Y-132865000I0J150000D01*
G01*
G37*
G36*
G01*
X119195000Y-134135000D02*
X119195000Y-133835000D01*
G75*
G02*
X119345000Y-133685000I150000J0D01*
G01*
X121095000Y-133685000D01*
G75*
G02*
X121245000Y-133835000I0J-150000D01*
G01*
X121245000Y-134135000D01*
G75*
G02*
X121095000Y-134285000I-150000J0D01*
G01*
X119345000Y-134285000D01*
G75*
G02*
X119195000Y-134135000I0J150000D01*
G01*
G37*
G36*
G01*
X119195000Y-135405000D02*
X119195000Y-135105000D01*
G75*
G02*
X119345000Y-134955000I150000J0D01*
G01*
X121095000Y-134955000D01*
G75*
G02*
X121245000Y-135105000I0J-150000D01*
G01*
X121245000Y-135405000D01*
G75*
G02*
X121095000Y-135555000I-150000J0D01*
G01*
X119345000Y-135555000D01*
G75*
G02*
X119195000Y-135405000I0J150000D01*
G01*
G37*
G36*
G01*
X119195000Y-136675000D02*
X119195000Y-136375000D01*
G75*
G02*
X119345000Y-136225000I150000J0D01*
G01*
X121095000Y-136225000D01*
G75*
G02*
X121245000Y-136375000I0J-150000D01*
G01*
X121245000Y-136675000D01*
G75*
G02*
X121095000Y-136825000I-150000J0D01*
G01*
X119345000Y-136825000D01*
G75*
G02*
X119195000Y-136675000I0J150000D01*
G01*
G37*
G36*
G01*
X109895000Y-136675000D02*
X109895000Y-136375000D01*
G75*
G02*
X110045000Y-136225000I150000J0D01*
G01*
X111795000Y-136225000D01*
G75*
G02*
X111945000Y-136375000I0J-150000D01*
G01*
X111945000Y-136675000D01*
G75*
G02*
X111795000Y-136825000I-150000J0D01*
G01*
X110045000Y-136825000D01*
G75*
G02*
X109895000Y-136675000I0J150000D01*
G01*
G37*
G36*
G01*
X109895000Y-135405000D02*
X109895000Y-135105000D01*
G75*
G02*
X110045000Y-134955000I150000J0D01*
G01*
X111795000Y-134955000D01*
G75*
G02*
X111945000Y-135105000I0J-150000D01*
G01*
X111945000Y-135405000D01*
G75*
G02*
X111795000Y-135555000I-150000J0D01*
G01*
X110045000Y-135555000D01*
G75*
G02*
X109895000Y-135405000I0J150000D01*
G01*
G37*
G36*
G01*
X109895000Y-134135000D02*
X109895000Y-133835000D01*
G75*
G02*
X110045000Y-133685000I150000J0D01*
G01*
X111795000Y-133685000D01*
G75*
G02*
X111945000Y-133835000I0J-150000D01*
G01*
X111945000Y-134135000D01*
G75*
G02*
X111795000Y-134285000I-150000J0D01*
G01*
X110045000Y-134285000D01*
G75*
G02*
X109895000Y-134135000I0J150000D01*
G01*
G37*
G36*
G01*
X109895000Y-132865000D02*
X109895000Y-132565000D01*
G75*
G02*
X110045000Y-132415000I150000J0D01*
G01*
X111795000Y-132415000D01*
G75*
G02*
X111945000Y-132565000I0J-150000D01*
G01*
X111945000Y-132865000D01*
G75*
G02*
X111795000Y-133015000I-150000J0D01*
G01*
X110045000Y-133015000D01*
G75*
G02*
X109895000Y-132865000I0J150000D01*
G01*
G37*
G36*
G01*
X109895000Y-131595000D02*
X109895000Y-131295000D01*
G75*
G02*
X110045000Y-131145000I150000J0D01*
G01*
X111795000Y-131145000D01*
G75*
G02*
X111945000Y-131295000I0J-150000D01*
G01*
X111945000Y-131595000D01*
G75*
G02*
X111795000Y-131745000I-150000J0D01*
G01*
X110045000Y-131745000D01*
G75*
G02*
X109895000Y-131595000I0J150000D01*
G01*
G37*
G36*
G01*
X109895000Y-130325000D02*
X109895000Y-130025000D01*
G75*
G02*
X110045000Y-129875000I150000J0D01*
G01*
X111795000Y-129875000D01*
G75*
G02*
X111945000Y-130025000I0J-150000D01*
G01*
X111945000Y-130325000D01*
G75*
G02*
X111795000Y-130475000I-150000J0D01*
G01*
X110045000Y-130475000D01*
G75*
G02*
X109895000Y-130325000I0J150000D01*
G01*
G37*
G36*
G01*
X109895000Y-129055000D02*
X109895000Y-128755000D01*
G75*
G02*
X110045000Y-128605000I150000J0D01*
G01*
X111795000Y-128605000D01*
G75*
G02*
X111945000Y-128755000I0J-150000D01*
G01*
X111945000Y-129055000D01*
G75*
G02*
X111795000Y-129205000I-150000J0D01*
G01*
X110045000Y-129205000D01*
G75*
G02*
X109895000Y-129055000I0J150000D01*
G01*
G37*
G36*
G01*
X109895000Y-127785000D02*
X109895000Y-127485000D01*
G75*
G02*
X110045000Y-127335000I150000J0D01*
G01*
X111795000Y-127335000D01*
G75*
G02*
X111945000Y-127485000I0J-150000D01*
G01*
X111945000Y-127785000D01*
G75*
G02*
X111795000Y-127935000I-150000J0D01*
G01*
X110045000Y-127935000D01*
G75*
G02*
X109895000Y-127785000I0J150000D01*
G01*
G37*
G36*
G01*
X109895000Y-126515000D02*
X109895000Y-126215000D01*
G75*
G02*
X110045000Y-126065000I150000J0D01*
G01*
X111795000Y-126065000D01*
G75*
G02*
X111945000Y-126215000I0J-150000D01*
G01*
X111945000Y-126515000D01*
G75*
G02*
X111795000Y-126665000I-150000J0D01*
G01*
X110045000Y-126665000D01*
G75*
G02*
X109895000Y-126515000I0J150000D01*
G01*
G37*
G36*
G01*
X109895000Y-125245000D02*
X109895000Y-124945000D01*
G75*
G02*
X110045000Y-124795000I150000J0D01*
G01*
X111795000Y-124795000D01*
G75*
G02*
X111945000Y-124945000I0J-150000D01*
G01*
X111945000Y-125245000D01*
G75*
G02*
X111795000Y-125395000I-150000J0D01*
G01*
X110045000Y-125395000D01*
G75*
G02*
X109895000Y-125245000I0J150000D01*
G01*
G37*
%TD*%
%TO.C,IC3*%
G36*
G01*
X119195000Y-110005000D02*
X119195000Y-109705000D01*
G75*
G02*
X119345000Y-109555000I150000J0D01*
G01*
X121095000Y-109555000D01*
G75*
G02*
X121245000Y-109705000I0J-150000D01*
G01*
X121245000Y-110005000D01*
G75*
G02*
X121095000Y-110155000I-150000J0D01*
G01*
X119345000Y-110155000D01*
G75*
G02*
X119195000Y-110005000I0J150000D01*
G01*
G37*
G36*
G01*
X119195000Y-111275000D02*
X119195000Y-110975000D01*
G75*
G02*
X119345000Y-110825000I150000J0D01*
G01*
X121095000Y-110825000D01*
G75*
G02*
X121245000Y-110975000I0J-150000D01*
G01*
X121245000Y-111275000D01*
G75*
G02*
X121095000Y-111425000I-150000J0D01*
G01*
X119345000Y-111425000D01*
G75*
G02*
X119195000Y-111275000I0J150000D01*
G01*
G37*
G36*
G01*
X119195000Y-112545000D02*
X119195000Y-112245000D01*
G75*
G02*
X119345000Y-112095000I150000J0D01*
G01*
X121095000Y-112095000D01*
G75*
G02*
X121245000Y-112245000I0J-150000D01*
G01*
X121245000Y-112545000D01*
G75*
G02*
X121095000Y-112695000I-150000J0D01*
G01*
X119345000Y-112695000D01*
G75*
G02*
X119195000Y-112545000I0J150000D01*
G01*
G37*
G36*
G01*
X119195000Y-113815000D02*
X119195000Y-113515000D01*
G75*
G02*
X119345000Y-113365000I150000J0D01*
G01*
X121095000Y-113365000D01*
G75*
G02*
X121245000Y-113515000I0J-150000D01*
G01*
X121245000Y-113815000D01*
G75*
G02*
X121095000Y-113965000I-150000J0D01*
G01*
X119345000Y-113965000D01*
G75*
G02*
X119195000Y-113815000I0J150000D01*
G01*
G37*
G36*
G01*
X119195000Y-115085000D02*
X119195000Y-114785000D01*
G75*
G02*
X119345000Y-114635000I150000J0D01*
G01*
X121095000Y-114635000D01*
G75*
G02*
X121245000Y-114785000I0J-150000D01*
G01*
X121245000Y-115085000D01*
G75*
G02*
X121095000Y-115235000I-150000J0D01*
G01*
X119345000Y-115235000D01*
G75*
G02*
X119195000Y-115085000I0J150000D01*
G01*
G37*
G36*
G01*
X119195000Y-116355000D02*
X119195000Y-116055000D01*
G75*
G02*
X119345000Y-115905000I150000J0D01*
G01*
X121095000Y-115905000D01*
G75*
G02*
X121245000Y-116055000I0J-150000D01*
G01*
X121245000Y-116355000D01*
G75*
G02*
X121095000Y-116505000I-150000J0D01*
G01*
X119345000Y-116505000D01*
G75*
G02*
X119195000Y-116355000I0J150000D01*
G01*
G37*
G36*
G01*
X119195000Y-117625000D02*
X119195000Y-117325000D01*
G75*
G02*
X119345000Y-117175000I150000J0D01*
G01*
X121095000Y-117175000D01*
G75*
G02*
X121245000Y-117325000I0J-150000D01*
G01*
X121245000Y-117625000D01*
G75*
G02*
X121095000Y-117775000I-150000J0D01*
G01*
X119345000Y-117775000D01*
G75*
G02*
X119195000Y-117625000I0J150000D01*
G01*
G37*
G36*
G01*
X119195000Y-118895000D02*
X119195000Y-118595000D01*
G75*
G02*
X119345000Y-118445000I150000J0D01*
G01*
X121095000Y-118445000D01*
G75*
G02*
X121245000Y-118595000I0J-150000D01*
G01*
X121245000Y-118895000D01*
G75*
G02*
X121095000Y-119045000I-150000J0D01*
G01*
X119345000Y-119045000D01*
G75*
G02*
X119195000Y-118895000I0J150000D01*
G01*
G37*
G36*
G01*
X119195000Y-120165000D02*
X119195000Y-119865000D01*
G75*
G02*
X119345000Y-119715000I150000J0D01*
G01*
X121095000Y-119715000D01*
G75*
G02*
X121245000Y-119865000I0J-150000D01*
G01*
X121245000Y-120165000D01*
G75*
G02*
X121095000Y-120315000I-150000J0D01*
G01*
X119345000Y-120315000D01*
G75*
G02*
X119195000Y-120165000I0J150000D01*
G01*
G37*
G36*
G01*
X119195000Y-121435000D02*
X119195000Y-121135000D01*
G75*
G02*
X119345000Y-120985000I150000J0D01*
G01*
X121095000Y-120985000D01*
G75*
G02*
X121245000Y-121135000I0J-150000D01*
G01*
X121245000Y-121435000D01*
G75*
G02*
X121095000Y-121585000I-150000J0D01*
G01*
X119345000Y-121585000D01*
G75*
G02*
X119195000Y-121435000I0J150000D01*
G01*
G37*
G36*
G01*
X109895000Y-121435000D02*
X109895000Y-121135000D01*
G75*
G02*
X110045000Y-120985000I150000J0D01*
G01*
X111795000Y-120985000D01*
G75*
G02*
X111945000Y-121135000I0J-150000D01*
G01*
X111945000Y-121435000D01*
G75*
G02*
X111795000Y-121585000I-150000J0D01*
G01*
X110045000Y-121585000D01*
G75*
G02*
X109895000Y-121435000I0J150000D01*
G01*
G37*
G36*
G01*
X109895000Y-120165000D02*
X109895000Y-119865000D01*
G75*
G02*
X110045000Y-119715000I150000J0D01*
G01*
X111795000Y-119715000D01*
G75*
G02*
X111945000Y-119865000I0J-150000D01*
G01*
X111945000Y-120165000D01*
G75*
G02*
X111795000Y-120315000I-150000J0D01*
G01*
X110045000Y-120315000D01*
G75*
G02*
X109895000Y-120165000I0J150000D01*
G01*
G37*
G36*
G01*
X109895000Y-118895000D02*
X109895000Y-118595000D01*
G75*
G02*
X110045000Y-118445000I150000J0D01*
G01*
X111795000Y-118445000D01*
G75*
G02*
X111945000Y-118595000I0J-150000D01*
G01*
X111945000Y-118895000D01*
G75*
G02*
X111795000Y-119045000I-150000J0D01*
G01*
X110045000Y-119045000D01*
G75*
G02*
X109895000Y-118895000I0J150000D01*
G01*
G37*
G36*
G01*
X109895000Y-117625000D02*
X109895000Y-117325000D01*
G75*
G02*
X110045000Y-117175000I150000J0D01*
G01*
X111795000Y-117175000D01*
G75*
G02*
X111945000Y-117325000I0J-150000D01*
G01*
X111945000Y-117625000D01*
G75*
G02*
X111795000Y-117775000I-150000J0D01*
G01*
X110045000Y-117775000D01*
G75*
G02*
X109895000Y-117625000I0J150000D01*
G01*
G37*
G36*
G01*
X109895000Y-116355000D02*
X109895000Y-116055000D01*
G75*
G02*
X110045000Y-115905000I150000J0D01*
G01*
X111795000Y-115905000D01*
G75*
G02*
X111945000Y-116055000I0J-150000D01*
G01*
X111945000Y-116355000D01*
G75*
G02*
X111795000Y-116505000I-150000J0D01*
G01*
X110045000Y-116505000D01*
G75*
G02*
X109895000Y-116355000I0J150000D01*
G01*
G37*
G36*
G01*
X109895000Y-115085000D02*
X109895000Y-114785000D01*
G75*
G02*
X110045000Y-114635000I150000J0D01*
G01*
X111795000Y-114635000D01*
G75*
G02*
X111945000Y-114785000I0J-150000D01*
G01*
X111945000Y-115085000D01*
G75*
G02*
X111795000Y-115235000I-150000J0D01*
G01*
X110045000Y-115235000D01*
G75*
G02*
X109895000Y-115085000I0J150000D01*
G01*
G37*
G36*
G01*
X109895000Y-113815000D02*
X109895000Y-113515000D01*
G75*
G02*
X110045000Y-113365000I150000J0D01*
G01*
X111795000Y-113365000D01*
G75*
G02*
X111945000Y-113515000I0J-150000D01*
G01*
X111945000Y-113815000D01*
G75*
G02*
X111795000Y-113965000I-150000J0D01*
G01*
X110045000Y-113965000D01*
G75*
G02*
X109895000Y-113815000I0J150000D01*
G01*
G37*
G36*
G01*
X109895000Y-112545000D02*
X109895000Y-112245000D01*
G75*
G02*
X110045000Y-112095000I150000J0D01*
G01*
X111795000Y-112095000D01*
G75*
G02*
X111945000Y-112245000I0J-150000D01*
G01*
X111945000Y-112545000D01*
G75*
G02*
X111795000Y-112695000I-150000J0D01*
G01*
X110045000Y-112695000D01*
G75*
G02*
X109895000Y-112545000I0J150000D01*
G01*
G37*
G36*
G01*
X109895000Y-111275000D02*
X109895000Y-110975000D01*
G75*
G02*
X110045000Y-110825000I150000J0D01*
G01*
X111795000Y-110825000D01*
G75*
G02*
X111945000Y-110975000I0J-150000D01*
G01*
X111945000Y-111275000D01*
G75*
G02*
X111795000Y-111425000I-150000J0D01*
G01*
X110045000Y-111425000D01*
G75*
G02*
X109895000Y-111275000I0J150000D01*
G01*
G37*
G36*
G01*
X109895000Y-110005000D02*
X109895000Y-109705000D01*
G75*
G02*
X110045000Y-109555000I150000J0D01*
G01*
X111795000Y-109555000D01*
G75*
G02*
X111945000Y-109705000I0J-150000D01*
G01*
X111945000Y-110005000D01*
G75*
G02*
X111795000Y-110155000I-150000J0D01*
G01*
X110045000Y-110155000D01*
G75*
G02*
X109895000Y-110005000I0J150000D01*
G01*
G37*
%TD*%
%TO.C,IC2*%
G36*
G01*
X119195000Y-93495000D02*
X119195000Y-93195000D01*
G75*
G02*
X119345000Y-93045000I150000J0D01*
G01*
X121095000Y-93045000D01*
G75*
G02*
X121245000Y-93195000I0J-150000D01*
G01*
X121245000Y-93495000D01*
G75*
G02*
X121095000Y-93645000I-150000J0D01*
G01*
X119345000Y-93645000D01*
G75*
G02*
X119195000Y-93495000I0J150000D01*
G01*
G37*
G36*
G01*
X119195000Y-94765000D02*
X119195000Y-94465000D01*
G75*
G02*
X119345000Y-94315000I150000J0D01*
G01*
X121095000Y-94315000D01*
G75*
G02*
X121245000Y-94465000I0J-150000D01*
G01*
X121245000Y-94765000D01*
G75*
G02*
X121095000Y-94915000I-150000J0D01*
G01*
X119345000Y-94915000D01*
G75*
G02*
X119195000Y-94765000I0J150000D01*
G01*
G37*
G36*
G01*
X119195000Y-96035000D02*
X119195000Y-95735000D01*
G75*
G02*
X119345000Y-95585000I150000J0D01*
G01*
X121095000Y-95585000D01*
G75*
G02*
X121245000Y-95735000I0J-150000D01*
G01*
X121245000Y-96035000D01*
G75*
G02*
X121095000Y-96185000I-150000J0D01*
G01*
X119345000Y-96185000D01*
G75*
G02*
X119195000Y-96035000I0J150000D01*
G01*
G37*
G36*
G01*
X119195000Y-97305000D02*
X119195000Y-97005000D01*
G75*
G02*
X119345000Y-96855000I150000J0D01*
G01*
X121095000Y-96855000D01*
G75*
G02*
X121245000Y-97005000I0J-150000D01*
G01*
X121245000Y-97305000D01*
G75*
G02*
X121095000Y-97455000I-150000J0D01*
G01*
X119345000Y-97455000D01*
G75*
G02*
X119195000Y-97305000I0J150000D01*
G01*
G37*
G36*
G01*
X119195000Y-98575000D02*
X119195000Y-98275000D01*
G75*
G02*
X119345000Y-98125000I150000J0D01*
G01*
X121095000Y-98125000D01*
G75*
G02*
X121245000Y-98275000I0J-150000D01*
G01*
X121245000Y-98575000D01*
G75*
G02*
X121095000Y-98725000I-150000J0D01*
G01*
X119345000Y-98725000D01*
G75*
G02*
X119195000Y-98575000I0J150000D01*
G01*
G37*
G36*
G01*
X119195000Y-99845000D02*
X119195000Y-99545000D01*
G75*
G02*
X119345000Y-99395000I150000J0D01*
G01*
X121095000Y-99395000D01*
G75*
G02*
X121245000Y-99545000I0J-150000D01*
G01*
X121245000Y-99845000D01*
G75*
G02*
X121095000Y-99995000I-150000J0D01*
G01*
X119345000Y-99995000D01*
G75*
G02*
X119195000Y-99845000I0J150000D01*
G01*
G37*
G36*
G01*
X119195000Y-101115000D02*
X119195000Y-100815000D01*
G75*
G02*
X119345000Y-100665000I150000J0D01*
G01*
X121095000Y-100665000D01*
G75*
G02*
X121245000Y-100815000I0J-150000D01*
G01*
X121245000Y-101115000D01*
G75*
G02*
X121095000Y-101265000I-150000J0D01*
G01*
X119345000Y-101265000D01*
G75*
G02*
X119195000Y-101115000I0J150000D01*
G01*
G37*
G36*
G01*
X119195000Y-102385000D02*
X119195000Y-102085000D01*
G75*
G02*
X119345000Y-101935000I150000J0D01*
G01*
X121095000Y-101935000D01*
G75*
G02*
X121245000Y-102085000I0J-150000D01*
G01*
X121245000Y-102385000D01*
G75*
G02*
X121095000Y-102535000I-150000J0D01*
G01*
X119345000Y-102535000D01*
G75*
G02*
X119195000Y-102385000I0J150000D01*
G01*
G37*
G36*
G01*
X119195000Y-103655000D02*
X119195000Y-103355000D01*
G75*
G02*
X119345000Y-103205000I150000J0D01*
G01*
X121095000Y-103205000D01*
G75*
G02*
X121245000Y-103355000I0J-150000D01*
G01*
X121245000Y-103655000D01*
G75*
G02*
X121095000Y-103805000I-150000J0D01*
G01*
X119345000Y-103805000D01*
G75*
G02*
X119195000Y-103655000I0J150000D01*
G01*
G37*
G36*
G01*
X119195000Y-104925000D02*
X119195000Y-104625000D01*
G75*
G02*
X119345000Y-104475000I150000J0D01*
G01*
X121095000Y-104475000D01*
G75*
G02*
X121245000Y-104625000I0J-150000D01*
G01*
X121245000Y-104925000D01*
G75*
G02*
X121095000Y-105075000I-150000J0D01*
G01*
X119345000Y-105075000D01*
G75*
G02*
X119195000Y-104925000I0J150000D01*
G01*
G37*
G36*
G01*
X109895000Y-104925000D02*
X109895000Y-104625000D01*
G75*
G02*
X110045000Y-104475000I150000J0D01*
G01*
X111795000Y-104475000D01*
G75*
G02*
X111945000Y-104625000I0J-150000D01*
G01*
X111945000Y-104925000D01*
G75*
G02*
X111795000Y-105075000I-150000J0D01*
G01*
X110045000Y-105075000D01*
G75*
G02*
X109895000Y-104925000I0J150000D01*
G01*
G37*
G36*
G01*
X109895000Y-103655000D02*
X109895000Y-103355000D01*
G75*
G02*
X110045000Y-103205000I150000J0D01*
G01*
X111795000Y-103205000D01*
G75*
G02*
X111945000Y-103355000I0J-150000D01*
G01*
X111945000Y-103655000D01*
G75*
G02*
X111795000Y-103805000I-150000J0D01*
G01*
X110045000Y-103805000D01*
G75*
G02*
X109895000Y-103655000I0J150000D01*
G01*
G37*
G36*
G01*
X109895000Y-102385000D02*
X109895000Y-102085000D01*
G75*
G02*
X110045000Y-101935000I150000J0D01*
G01*
X111795000Y-101935000D01*
G75*
G02*
X111945000Y-102085000I0J-150000D01*
G01*
X111945000Y-102385000D01*
G75*
G02*
X111795000Y-102535000I-150000J0D01*
G01*
X110045000Y-102535000D01*
G75*
G02*
X109895000Y-102385000I0J150000D01*
G01*
G37*
G36*
G01*
X109895000Y-101115000D02*
X109895000Y-100815000D01*
G75*
G02*
X110045000Y-100665000I150000J0D01*
G01*
X111795000Y-100665000D01*
G75*
G02*
X111945000Y-100815000I0J-150000D01*
G01*
X111945000Y-101115000D01*
G75*
G02*
X111795000Y-101265000I-150000J0D01*
G01*
X110045000Y-101265000D01*
G75*
G02*
X109895000Y-101115000I0J150000D01*
G01*
G37*
G36*
G01*
X109895000Y-99845000D02*
X109895000Y-99545000D01*
G75*
G02*
X110045000Y-99395000I150000J0D01*
G01*
X111795000Y-99395000D01*
G75*
G02*
X111945000Y-99545000I0J-150000D01*
G01*
X111945000Y-99845000D01*
G75*
G02*
X111795000Y-99995000I-150000J0D01*
G01*
X110045000Y-99995000D01*
G75*
G02*
X109895000Y-99845000I0J150000D01*
G01*
G37*
G36*
G01*
X109895000Y-98575000D02*
X109895000Y-98275000D01*
G75*
G02*
X110045000Y-98125000I150000J0D01*
G01*
X111795000Y-98125000D01*
G75*
G02*
X111945000Y-98275000I0J-150000D01*
G01*
X111945000Y-98575000D01*
G75*
G02*
X111795000Y-98725000I-150000J0D01*
G01*
X110045000Y-98725000D01*
G75*
G02*
X109895000Y-98575000I0J150000D01*
G01*
G37*
G36*
G01*
X109895000Y-97305000D02*
X109895000Y-97005000D01*
G75*
G02*
X110045000Y-96855000I150000J0D01*
G01*
X111795000Y-96855000D01*
G75*
G02*
X111945000Y-97005000I0J-150000D01*
G01*
X111945000Y-97305000D01*
G75*
G02*
X111795000Y-97455000I-150000J0D01*
G01*
X110045000Y-97455000D01*
G75*
G02*
X109895000Y-97305000I0J150000D01*
G01*
G37*
G36*
G01*
X109895000Y-96035000D02*
X109895000Y-95735000D01*
G75*
G02*
X110045000Y-95585000I150000J0D01*
G01*
X111795000Y-95585000D01*
G75*
G02*
X111945000Y-95735000I0J-150000D01*
G01*
X111945000Y-96035000D01*
G75*
G02*
X111795000Y-96185000I-150000J0D01*
G01*
X110045000Y-96185000D01*
G75*
G02*
X109895000Y-96035000I0J150000D01*
G01*
G37*
G36*
G01*
X109895000Y-94765000D02*
X109895000Y-94465000D01*
G75*
G02*
X110045000Y-94315000I150000J0D01*
G01*
X111795000Y-94315000D01*
G75*
G02*
X111945000Y-94465000I0J-150000D01*
G01*
X111945000Y-94765000D01*
G75*
G02*
X111795000Y-94915000I-150000J0D01*
G01*
X110045000Y-94915000D01*
G75*
G02*
X109895000Y-94765000I0J150000D01*
G01*
G37*
G36*
G01*
X109895000Y-93495000D02*
X109895000Y-93195000D01*
G75*
G02*
X110045000Y-93045000I150000J0D01*
G01*
X111795000Y-93045000D01*
G75*
G02*
X111945000Y-93195000I0J-150000D01*
G01*
X111945000Y-93495000D01*
G75*
G02*
X111795000Y-93645000I-150000J0D01*
G01*
X110045000Y-93645000D01*
G75*
G02*
X109895000Y-93495000I0J150000D01*
G01*
G37*
%TD*%
%TO.C,IC1*%
G36*
G01*
X119195000Y-76985000D02*
X119195000Y-76685000D01*
G75*
G02*
X119345000Y-76535000I150000J0D01*
G01*
X121095000Y-76535000D01*
G75*
G02*
X121245000Y-76685000I0J-150000D01*
G01*
X121245000Y-76985000D01*
G75*
G02*
X121095000Y-77135000I-150000J0D01*
G01*
X119345000Y-77135000D01*
G75*
G02*
X119195000Y-76985000I0J150000D01*
G01*
G37*
G36*
G01*
X119195000Y-78255000D02*
X119195000Y-77955000D01*
G75*
G02*
X119345000Y-77805000I150000J0D01*
G01*
X121095000Y-77805000D01*
G75*
G02*
X121245000Y-77955000I0J-150000D01*
G01*
X121245000Y-78255000D01*
G75*
G02*
X121095000Y-78405000I-150000J0D01*
G01*
X119345000Y-78405000D01*
G75*
G02*
X119195000Y-78255000I0J150000D01*
G01*
G37*
G36*
G01*
X119195000Y-79525000D02*
X119195000Y-79225000D01*
G75*
G02*
X119345000Y-79075000I150000J0D01*
G01*
X121095000Y-79075000D01*
G75*
G02*
X121245000Y-79225000I0J-150000D01*
G01*
X121245000Y-79525000D01*
G75*
G02*
X121095000Y-79675000I-150000J0D01*
G01*
X119345000Y-79675000D01*
G75*
G02*
X119195000Y-79525000I0J150000D01*
G01*
G37*
G36*
G01*
X119195000Y-80795000D02*
X119195000Y-80495000D01*
G75*
G02*
X119345000Y-80345000I150000J0D01*
G01*
X121095000Y-80345000D01*
G75*
G02*
X121245000Y-80495000I0J-150000D01*
G01*
X121245000Y-80795000D01*
G75*
G02*
X121095000Y-80945000I-150000J0D01*
G01*
X119345000Y-80945000D01*
G75*
G02*
X119195000Y-80795000I0J150000D01*
G01*
G37*
G36*
G01*
X119195000Y-82065000D02*
X119195000Y-81765000D01*
G75*
G02*
X119345000Y-81615000I150000J0D01*
G01*
X121095000Y-81615000D01*
G75*
G02*
X121245000Y-81765000I0J-150000D01*
G01*
X121245000Y-82065000D01*
G75*
G02*
X121095000Y-82215000I-150000J0D01*
G01*
X119345000Y-82215000D01*
G75*
G02*
X119195000Y-82065000I0J150000D01*
G01*
G37*
G36*
G01*
X119195000Y-83335000D02*
X119195000Y-83035000D01*
G75*
G02*
X119345000Y-82885000I150000J0D01*
G01*
X121095000Y-82885000D01*
G75*
G02*
X121245000Y-83035000I0J-150000D01*
G01*
X121245000Y-83335000D01*
G75*
G02*
X121095000Y-83485000I-150000J0D01*
G01*
X119345000Y-83485000D01*
G75*
G02*
X119195000Y-83335000I0J150000D01*
G01*
G37*
G36*
G01*
X119195000Y-84605000D02*
X119195000Y-84305000D01*
G75*
G02*
X119345000Y-84155000I150000J0D01*
G01*
X121095000Y-84155000D01*
G75*
G02*
X121245000Y-84305000I0J-150000D01*
G01*
X121245000Y-84605000D01*
G75*
G02*
X121095000Y-84755000I-150000J0D01*
G01*
X119345000Y-84755000D01*
G75*
G02*
X119195000Y-84605000I0J150000D01*
G01*
G37*
G36*
G01*
X119195000Y-85875000D02*
X119195000Y-85575000D01*
G75*
G02*
X119345000Y-85425000I150000J0D01*
G01*
X121095000Y-85425000D01*
G75*
G02*
X121245000Y-85575000I0J-150000D01*
G01*
X121245000Y-85875000D01*
G75*
G02*
X121095000Y-86025000I-150000J0D01*
G01*
X119345000Y-86025000D01*
G75*
G02*
X119195000Y-85875000I0J150000D01*
G01*
G37*
G36*
G01*
X119195000Y-87145000D02*
X119195000Y-86845000D01*
G75*
G02*
X119345000Y-86695000I150000J0D01*
G01*
X121095000Y-86695000D01*
G75*
G02*
X121245000Y-86845000I0J-150000D01*
G01*
X121245000Y-87145000D01*
G75*
G02*
X121095000Y-87295000I-150000J0D01*
G01*
X119345000Y-87295000D01*
G75*
G02*
X119195000Y-87145000I0J150000D01*
G01*
G37*
G36*
G01*
X119195000Y-88415000D02*
X119195000Y-88115000D01*
G75*
G02*
X119345000Y-87965000I150000J0D01*
G01*
X121095000Y-87965000D01*
G75*
G02*
X121245000Y-88115000I0J-150000D01*
G01*
X121245000Y-88415000D01*
G75*
G02*
X121095000Y-88565000I-150000J0D01*
G01*
X119345000Y-88565000D01*
G75*
G02*
X119195000Y-88415000I0J150000D01*
G01*
G37*
G36*
G01*
X109895000Y-88415000D02*
X109895000Y-88115000D01*
G75*
G02*
X110045000Y-87965000I150000J0D01*
G01*
X111795000Y-87965000D01*
G75*
G02*
X111945000Y-88115000I0J-150000D01*
G01*
X111945000Y-88415000D01*
G75*
G02*
X111795000Y-88565000I-150000J0D01*
G01*
X110045000Y-88565000D01*
G75*
G02*
X109895000Y-88415000I0J150000D01*
G01*
G37*
G36*
G01*
X109895000Y-87145000D02*
X109895000Y-86845000D01*
G75*
G02*
X110045000Y-86695000I150000J0D01*
G01*
X111795000Y-86695000D01*
G75*
G02*
X111945000Y-86845000I0J-150000D01*
G01*
X111945000Y-87145000D01*
G75*
G02*
X111795000Y-87295000I-150000J0D01*
G01*
X110045000Y-87295000D01*
G75*
G02*
X109895000Y-87145000I0J150000D01*
G01*
G37*
G36*
G01*
X109895000Y-85875000D02*
X109895000Y-85575000D01*
G75*
G02*
X110045000Y-85425000I150000J0D01*
G01*
X111795000Y-85425000D01*
G75*
G02*
X111945000Y-85575000I0J-150000D01*
G01*
X111945000Y-85875000D01*
G75*
G02*
X111795000Y-86025000I-150000J0D01*
G01*
X110045000Y-86025000D01*
G75*
G02*
X109895000Y-85875000I0J150000D01*
G01*
G37*
G36*
G01*
X109895000Y-84605000D02*
X109895000Y-84305000D01*
G75*
G02*
X110045000Y-84155000I150000J0D01*
G01*
X111795000Y-84155000D01*
G75*
G02*
X111945000Y-84305000I0J-150000D01*
G01*
X111945000Y-84605000D01*
G75*
G02*
X111795000Y-84755000I-150000J0D01*
G01*
X110045000Y-84755000D01*
G75*
G02*
X109895000Y-84605000I0J150000D01*
G01*
G37*
G36*
G01*
X109895000Y-83335000D02*
X109895000Y-83035000D01*
G75*
G02*
X110045000Y-82885000I150000J0D01*
G01*
X111795000Y-82885000D01*
G75*
G02*
X111945000Y-83035000I0J-150000D01*
G01*
X111945000Y-83335000D01*
G75*
G02*
X111795000Y-83485000I-150000J0D01*
G01*
X110045000Y-83485000D01*
G75*
G02*
X109895000Y-83335000I0J150000D01*
G01*
G37*
G36*
G01*
X109895000Y-82065000D02*
X109895000Y-81765000D01*
G75*
G02*
X110045000Y-81615000I150000J0D01*
G01*
X111795000Y-81615000D01*
G75*
G02*
X111945000Y-81765000I0J-150000D01*
G01*
X111945000Y-82065000D01*
G75*
G02*
X111795000Y-82215000I-150000J0D01*
G01*
X110045000Y-82215000D01*
G75*
G02*
X109895000Y-82065000I0J150000D01*
G01*
G37*
G36*
G01*
X109895000Y-80795000D02*
X109895000Y-80495000D01*
G75*
G02*
X110045000Y-80345000I150000J0D01*
G01*
X111795000Y-80345000D01*
G75*
G02*
X111945000Y-80495000I0J-150000D01*
G01*
X111945000Y-80795000D01*
G75*
G02*
X111795000Y-80945000I-150000J0D01*
G01*
X110045000Y-80945000D01*
G75*
G02*
X109895000Y-80795000I0J150000D01*
G01*
G37*
G36*
G01*
X109895000Y-79525000D02*
X109895000Y-79225000D01*
G75*
G02*
X110045000Y-79075000I150000J0D01*
G01*
X111795000Y-79075000D01*
G75*
G02*
X111945000Y-79225000I0J-150000D01*
G01*
X111945000Y-79525000D01*
G75*
G02*
X111795000Y-79675000I-150000J0D01*
G01*
X110045000Y-79675000D01*
G75*
G02*
X109895000Y-79525000I0J150000D01*
G01*
G37*
G36*
G01*
X109895000Y-78255000D02*
X109895000Y-77955000D01*
G75*
G02*
X110045000Y-77805000I150000J0D01*
G01*
X111795000Y-77805000D01*
G75*
G02*
X111945000Y-77955000I0J-150000D01*
G01*
X111945000Y-78255000D01*
G75*
G02*
X111795000Y-78405000I-150000J0D01*
G01*
X110045000Y-78405000D01*
G75*
G02*
X109895000Y-78255000I0J150000D01*
G01*
G37*
G36*
G01*
X109895000Y-76985000D02*
X109895000Y-76685000D01*
G75*
G02*
X110045000Y-76535000I150000J0D01*
G01*
X111795000Y-76535000D01*
G75*
G02*
X111945000Y-76685000I0J-150000D01*
G01*
X111945000Y-76985000D01*
G75*
G02*
X111795000Y-77135000I-150000J0D01*
G01*
X110045000Y-77135000D01*
G75*
G02*
X109895000Y-76985000I0J150000D01*
G01*
G37*
%TD*%
%TO.C,C5*%
G36*
G01*
X123985000Y-138880000D02*
X124935000Y-138880000D01*
G75*
G02*
X125185000Y-139130000I0J-250000D01*
G01*
X125185000Y-139630000D01*
G75*
G02*
X124935000Y-139880000I-250000J0D01*
G01*
X123985000Y-139880000D01*
G75*
G02*
X123735000Y-139630000I0J250000D01*
G01*
X123735000Y-139130000D01*
G75*
G02*
X123985000Y-138880000I250000J0D01*
G01*
G37*
G36*
G01*
X123985000Y-136980000D02*
X124935000Y-136980000D01*
G75*
G02*
X125185000Y-137230000I0J-250000D01*
G01*
X125185000Y-137730000D01*
G75*
G02*
X124935000Y-137980000I-250000J0D01*
G01*
X123985000Y-137980000D01*
G75*
G02*
X123735000Y-137730000I0J250000D01*
G01*
X123735000Y-137230000D01*
G75*
G02*
X123985000Y-136980000I250000J0D01*
G01*
G37*
%TD*%
%TO.C,C4*%
G36*
G01*
X123985000Y-123640000D02*
X124935000Y-123640000D01*
G75*
G02*
X125185000Y-123890000I0J-250000D01*
G01*
X125185000Y-124390000D01*
G75*
G02*
X124935000Y-124640000I-250000J0D01*
G01*
X123985000Y-124640000D01*
G75*
G02*
X123735000Y-124390000I0J250000D01*
G01*
X123735000Y-123890000D01*
G75*
G02*
X123985000Y-123640000I250000J0D01*
G01*
G37*
G36*
G01*
X123985000Y-121740000D02*
X124935000Y-121740000D01*
G75*
G02*
X125185000Y-121990000I0J-250000D01*
G01*
X125185000Y-122490000D01*
G75*
G02*
X124935000Y-122740000I-250000J0D01*
G01*
X123985000Y-122740000D01*
G75*
G02*
X123735000Y-122490000I0J250000D01*
G01*
X123735000Y-121990000D01*
G75*
G02*
X123985000Y-121740000I250000J0D01*
G01*
G37*
%TD*%
%TO.C,C3*%
G36*
G01*
X123985000Y-108080000D02*
X124935000Y-108080000D01*
G75*
G02*
X125185000Y-108330000I0J-250000D01*
G01*
X125185000Y-108830000D01*
G75*
G02*
X124935000Y-109080000I-250000J0D01*
G01*
X123985000Y-109080000D01*
G75*
G02*
X123735000Y-108830000I0J250000D01*
G01*
X123735000Y-108330000D01*
G75*
G02*
X123985000Y-108080000I250000J0D01*
G01*
G37*
G36*
G01*
X123985000Y-106180000D02*
X124935000Y-106180000D01*
G75*
G02*
X125185000Y-106430000I0J-250000D01*
G01*
X125185000Y-106930000D01*
G75*
G02*
X124935000Y-107180000I-250000J0D01*
G01*
X123985000Y-107180000D01*
G75*
G02*
X123735000Y-106930000I0J250000D01*
G01*
X123735000Y-106430000D01*
G75*
G02*
X123985000Y-106180000I250000J0D01*
G01*
G37*
%TD*%
%TO.C,C2*%
G36*
G01*
X123985000Y-91890000D02*
X124935000Y-91890000D01*
G75*
G02*
X125185000Y-92140000I0J-250000D01*
G01*
X125185000Y-92640000D01*
G75*
G02*
X124935000Y-92890000I-250000J0D01*
G01*
X123985000Y-92890000D01*
G75*
G02*
X123735000Y-92640000I0J250000D01*
G01*
X123735000Y-92140000D01*
G75*
G02*
X123985000Y-91890000I250000J0D01*
G01*
G37*
G36*
G01*
X123985000Y-89990000D02*
X124935000Y-89990000D01*
G75*
G02*
X125185000Y-90240000I0J-250000D01*
G01*
X125185000Y-90740000D01*
G75*
G02*
X124935000Y-90990000I-250000J0D01*
G01*
X123985000Y-90990000D01*
G75*
G02*
X123735000Y-90740000I0J250000D01*
G01*
X123735000Y-90240000D01*
G75*
G02*
X123985000Y-89990000I250000J0D01*
G01*
G37*
%TD*%
%TO.C,C1*%
G36*
G01*
X123985000Y-75380000D02*
X124935000Y-75380000D01*
G75*
G02*
X125185000Y-75630000I0J-250000D01*
G01*
X125185000Y-76130000D01*
G75*
G02*
X124935000Y-76380000I-250000J0D01*
G01*
X123985000Y-76380000D01*
G75*
G02*
X123735000Y-76130000I0J250000D01*
G01*
X123735000Y-75630000D01*
G75*
G02*
X123985000Y-75380000I250000J0D01*
G01*
G37*
G36*
G01*
X123985000Y-73480000D02*
X124935000Y-73480000D01*
G75*
G02*
X125185000Y-73730000I0J-250000D01*
G01*
X125185000Y-74230000D01*
G75*
G02*
X124935000Y-74480000I-250000J0D01*
G01*
X123985000Y-74480000D01*
G75*
G02*
X123735000Y-74230000I0J250000D01*
G01*
X123735000Y-73730000D01*
G75*
G02*
X123985000Y-73480000I250000J0D01*
G01*
G37*
%TD*%
M02*
